<svg xmlns="http://www.w3.org/2000/svg" width="33" height="33" viewBox="0 0 33 33">
    <defs>
        <clipPath id="ag3f6rdewa">
            <path data-name="사각형 159" transform="translate(.461)" style="fill:none" d="M0 0h33v33H0z"/>
        </clipPath>
    </defs>
    <g data-name="그룹 215">
        <g data-name="그룹 210">
            <g data-name="그룹 209" transform="translate(-.461)" style="clip-path:url(#ag3f6rdewa)">
                <path data-name="패스 4528" d="M9.881 33.222a8.357 8.357 0 0 1-1.807-.2 9.6 9.6 0 0 1-4.718-2.7c-.152-.147-.31-.3-.457-.457a9.6 9.6 0 0 1-2.7-4.718 8.622 8.622 0 0 1 .286-4.665 9 9 0 0 1 6.876-6.07c.851-.152 1.817-.336 3.271-2.59a5.539 5.539 0 0 1 3.951-2.7 6.266 6.266 0 0 1 4.969 1.779l.019.018.143.143a.646.646 0 1 1-.914.913l-.134-.133a5.051 5.051 0 0 0-3.92-1.439 4.24 4.24 0 0 0-3.029 2.12c-1.633 2.531-2.893 2.941-4.146 3.164l-.034.005a7.668 7.668 0 0 0-5.831 5.21 7.491 7.491 0 0 0 2.112 8.053l.008.009c.139.144.288.293.432.431l.009.009a7.493 7.493 0 0 0 8.054 2.112 7.665 7.665 0 0 0 5.209-5.829v-.034c.223-1.254.633-2.515 3.164-4.149a4.24 4.24 0 0 0 2.12-3.028 5.052 5.052 0 0 0-1.436-3.919l-.134-.132a.646.646 0 0 1 .908-.919l.145.143.021.022a6.268 6.268 0 0 1 1.777 4.969 5.541 5.541 0 0 1-2.7 3.951c-2.254 1.454-2.438 2.421-2.59 3.273a9 9 0 0 1-6.069 6.875 8.8 8.8 0 0 1-2.858.482"/>
            </g>
        </g>
        <g data-name="그룹 212">
            <g data-name="그룹 211" transform="translate(-.461)" style="clip-path:url(#ag3f6rdewa)">
                <path data-name="패스 4529" d="M9.427 27.544a.644.644 0 0 1-.457-.189l-3.146-3.146a.646.646 0 1 1 .913-.913l3.146 3.146a.646.646 0 0 1-.457 1.1"/>
                <path data-name="패스 4530" d="M150.727 89.894a2.954 2.954 0 0 1 2.446 2.447l6.273-6.273 4.561-4.561-2.446-2.446L157 83.62z" transform="translate(-137.746 -72.1)" style="fill:#59c9c2;fill-rule:evenodd"/>
            </g>
        </g>
        <g data-name="그룹 214">
            <g data-name="그룹 213" transform="translate(-.461)" style="clip-path:url(#ag3f6rdewa)">
                <path data-name="패스 4531" d="M12.521 24.299a3.6 3.6 0 1 1 2.54-1.053 3.567 3.567 0 0 1-2.54 1.053m0-5.9a2.282 2.282 0 0 0-1.627.674 2.3 2.3 0 1 0 1.628-.675m-2.084.218z"/>
                <path data-name="패스 4532" d="m32.168 5.758.456-.456a1.519 1.519 0 0 0 0-2.148L30.068.593a1.52 1.52 0 0 0-2.146 0l-.454.457-.562-.561a.646.646 0 1 0-.913.914l.561.56-1.57 1.569-.561-.56a.646.646 0 1 0-.913.913l.561.561-.766.765a1.519 1.519 0 0 0 0 2.146l2.563 2.564a1.52 1.52 0 0 0 2.146 0l.765-.766.561.56a.646.646 0 0 0 .913-.913l-.56-.561 1.57-1.57.56.56a.646.646 0 1 0 .914-.912zm-5.076 3.249a.228.228 0 0 1-.319 0l-2.564-2.564a.228.228 0 0 1 0-.319l4.62-4.618a.228.228 0 0 1 .319 0l2.563 2.563a.223.223 0 0 1 .065.158.227.227 0 0 1-.066.161z"/>
            </g>
        </g>
    </g>
</svg>
