<svg xmlns="http://www.w3.org/2000/svg" width="33" height="33" viewBox="0 0 33 33">
    <defs>
        <clipPath id="52e52zctaa">
            <path data-name="사각형 162" transform="translate(-.078 .001)" d="M0 0h33v33H0z"/>
        </clipPath>
    </defs>
    <g data-name="그룹 226">
        <g data-name="그룹 219">
            <g data-name="그룹 218" style="clip-path:url(#52e52zctaa)" transform="translate(.078 -.001)">
                <path data-name="패스 4533" d="M12.617 32.866a1.934 1.934 0 0 1-1.681-.984.657.657 0 0 1-.06-.144l-2.139-7.544-7.546-2.139a.662.662 0 0 1-.145-.06 1.938 1.938 0 0 1-.982-1.729 2.424 2.424 0 0 1 1.472-2.037l13.227-7.971.021-.012c1.157-.641 2.355-1.3 3.782.142l3.979 3.979c1.442 1.422.78 2.62.14 3.779l-.013.022-7.969 13.226a2.425 2.425 0 0 1-2.041 1.471h-.045m-.517-1.57a.637.637 0 0 0 .532.272c.338-.008.675-.293.925-.784l.023-.041 7.973-13.232c.651-1.178.79-1.518.077-2.221l-3.985-3.985c-.707-.716-1.047-.577-2.222.073L2.187 19.353l-.042.023c-.49.248-.775.584-.783.922a.637.637 0 0 0 .272.534l7.805 2.212a.65.65 0 0 1 .448.448z"/>
            </g>
        </g>
        <g data-name="그룹 221">
            <g data-name="그룹 220" style="clip-path:url(#52e52zctaa)" transform="translate(.078 -.001)">
                <path data-name="패스 4534" d="M12.995 25.911h-.011a.65.65 0 1 1 0-1.3h.011a.65.65 0 1 1 0 1.3"/>
                <path data-name="패스 4535" d="M12.971 28.331h-.011a.65.65 0 1 1 0-1.3h.011a.65.65 0 1 1 0 1.3"/>
            </g>
        </g>
        <g data-name="그룹 223">
            <g data-name="그룹 222" style="clip-path:url(#52e52zctaa)" transform="translate(.078 -.001)">
                <path data-name="패스 4536" d="M174.452 73.165 172.293 71l-10.906 10.91 2.161 2.159z" transform="translate(-147.365 -65.222)" style="fill:#59c991;fill-rule:evenodd"/>
                <path data-name="패스 4537" d="m33.087 5.528-.571-.571.217-.217a1.358 1.358 0 0 0 0-1.921L30.05.137a1.359 1.359 0 0 0-1.92 0l-.262.261-.57-.57a.65.65 0 0 0-.918.918l.57.57-1.595 1.595-.526-.526a.65.65 0 1 0-.918.918l.526.526-.23.23a1.358 1.358 0 0 0 0 1.92l2.685 2.685a1.359 1.359 0 0 0 1.92 0l.275-.275.571.57a.65.65 0 1 0 .917-.919l-.57-.569 1.6-1.6.571.571a.65.65 0 1 0 .918-.918m-5.278 2.217-2.687-2.687a.056.056 0 0 1-.016-.04.06.06 0 0 1 .017-.043l3.924-3.924a.061.061 0 0 1 .084 0l2.679 2.69a.059.059 0 0 1 .017.043.055.055 0 0 1-.017.041l-3.924 3.924a.061.061 0 0 1-.084 0"/>
            </g>
        </g>
        <g data-name="그룹 225">
            <g data-name="그룹 224" style="clip-path:url(#52e52zctaa)" transform="translate(.078 -.001)">
                <path data-name="패스 4538" d="M14.743 22.461a.65.65 0 0 1-.459-.19l-3.625-3.626a.649.649 0 0 1 0-.918l2.2-2.2a.649.649 0 0 1 .918 0l3.624 3.624a.649.649 0 0 1 0 .917l-2.2 2.2a.65.65 0 0 1-.459.19zm-2.708-4.274 2.707 2.707 1.282-1.284-2.704-2.707z"/>
            </g>
        </g>
    </g>
</svg>
