<svg xmlns="http://www.w3.org/2000/svg" width="33" height="28" viewBox="0 0 33 28">
    <defs>
        <clipPath id="pxc08mycva">
            <path data-name="사각형 170" d="M0 0h33v28H0z"/>
        </clipPath>
    </defs>
    <g data-name="그룹 233">
        <g data-name="그룹 232" style="clip-path:url(#pxc08mycva)">
            <path data-name="패스 4541" d="M32.355 0H.645A.648.648 0 0 0 0 .652v26.7A.648.648 0 0 0 .645 28h31.71a.648.648 0 0 0 .645-.652V.652A.648.648 0 0 0 32.355 0m-.645 12.763H1.289V1.3h30.422zM25.071 26.7v-6.241a.645.645 0 1 0-1.289 0V26.7h-6.638v-6.241a.645.645 0 1 0-1.289 0V26.7H9.216v-6.241a.645.645 0 1 0-1.289 0V26.7H1.289V14.066h30.422V26.7z"/>
            <path data-name="패스 4542" d="M3.416 5.623h.322v4.988a.645.645 0 1 0 1.289 0V5.623h.322a.652.652 0 0 0 0-1.3h-.322V3.46a.645.645 0 1 0-1.289 0v.863h-.322a.652.652 0 0 0 0 1.3"/>
            <path data-name="패스 4543" d="M8.322 9.75h.323v.866a.645.645 0 1 0 1.289 0V9.75h.322a.652.652 0 0 0 0-1.3h-.322V3.456a.645.645 0 1 0-1.289 0v4.986h-.324a.652.652 0 0 0 0 1.3"/>
            <path data-name="패스 4544" d="M14.925 7.685a2.441 2.441 0 1 0-2.413-2.441 2.43 2.43 0 0 0 2.413 2.441m0-3.578a1.137 1.137 0 1 1-1.124 1.137 1.132 1.132 0 0 1 1.124-1.136"/>
            <path data-name="패스 4545" d="M15.895 9.959h-1.933a.652.652 0 0 0 0 1.3h1.933a.652.652 0 0 0 0-1.3"/>
            <path data-name="패스 4546" d="M22.337 9.959h-1.933a.652.652 0 0 0 0 1.3h1.933a.652.652 0 0 0 0-1.3"/>
            <path data-name="패스 4547" d="M21.367 7.685a2.441 2.441 0 1 0-2.413-2.441 2.43 2.43 0 0 0 2.413 2.441m0-3.578a1.137 1.137 0 1 1-1.124 1.137 1.132 1.132 0 0 1 1.124-1.136"/>
            <path data-name="패스 4548" d="M27.812 7.685a2.441 2.441 0 1 0-2.413-2.441 2.43 2.43 0 0 0 2.413 2.441m0-3.578a1.137 1.137 0 1 1-1.124 1.137 1.132 1.132 0 0 1 1.124-1.136"/>
            <path data-name="패스 4549" d="M28.779 9.959h-1.933a.652.652 0 0 0 0 1.3h1.933a.652.652 0 0 0 0-1.3"/>
            <path data-name="사각형 167" transform="translate(6.69 14.066)" style="fill:#59c991" d="M0 0h3.763v7.34H0z"/>
            <path data-name="사각형 168" transform="translate(14.617 14.066)" style="fill:#59c991" d="M0 0h3.763v7.34H0z"/>
            <path data-name="사각형 169" transform="translate(22.544 14.066)" style="fill:#59c991" d="M0 0h3.764v7.34H0z"/>
        </g>
    </g>
</svg>
