<svg xmlns="http://www.w3.org/2000/svg" width="34" height="33" viewBox="0 0 34 33">
    <defs>
        <clipPath id="3iyo4gg6pa">
            <path data-name="사각형 173" transform="translate(-.426)" d="M0 0h34v33H0z"/>
        </clipPath>
    </defs>
    <g data-name="그룹 236">
        <path data-name="사각형 171" transform="translate(4.097 8.654)" style="fill:#59c9c2" d="M0 0h9.083v2.595H0z"/>
        <path data-name="사각형 172" transform="translate(20.966 8.654)" style="fill:#59c9c2" d="M0 0h9.083v2.595H0z"/>
        <g data-name="그룹 235">
            <g data-name="그룹 234" style="clip-path:url(#3iyo4gg6pa)" transform="translate(.426)">
                <path data-name="패스 4550" d="M130.422 199.269a6.488 6.488 0 0 0-6.488-6.488c-8.6.318-8.594 12.659 0 12.976a6.488 6.488 0 0 0 6.488-6.488" transform="translate(-107.287 -176.342)" style="fill-rule:evenodd;fill:#59c9c2"/>
                <path data-name="패스 4551" d="m32.977 31.801-4.086-2.841V17.088h.732a.649.649 0 0 0 .649-.649V8.654a.649.649 0 0 0-.649-.649h-.732v-4l3.884-1.045a.649.649 0 0 0 .459-.794 3.251 3.251 0 0 0-3.973-2.29L24.247 1.22a3.25 3.25 0 0 0-2.294 3.973.649.649 0 0 0 .795.459l4.845-1.3v3.653H20.54a.649.649 0 0 0-.649.649V10.6h-6.483V8.654a.649.649 0 0 0-.649-.649H5.701V4.353l4.845 1.3a.648.648 0 0 0 .795-.459A3.251 3.251 0 0 0 9.047 1.22L4.034-.124A3.266 3.266 0 0 0 .061 2.17a.649.649 0 0 0 .459.79l3.888 1.045v4h-.736a.649.649 0 0 0-.649.649v7.785a.649.649 0 0 0 .649.649h.736V28.96L.317 31.801a.649.649 0 1 0 .74 1.066l3.961-2.753 3.3 2.721a.649.649 0 0 0 .825-1l-3.442-2.84V17.088h3.166a9.729 9.729 0 1 0 15.561 0h3.166v11.907l-3.446 2.838a.649.649 0 0 0 .825 1l3.3-2.721 3.961 2.753a.65.65 0 0 0 .741-1.066M23.408 3.381a1.932 1.932 0 0 1 1.179-.908l5.014-1.343a1.961 1.961 0 0 1 2.108.779l-8.562 2.292a1.952 1.952 0 0 1 .257-.819M2.222 1.327a1.93 1.93 0 0 1 1.475-.2l5.011 1.346a1.962 1.962 0 0 1 1.44 1.728L1.59 1.908a1.945 1.945 0 0 1 .633-.581m26.751 7.976v6.487h-5.717a9.8 9.8 0 0 0-2.068-1.469V9.303zm-9.083 4.449a9.668 9.668 0 0 0-2.6-.535v-1.319h2.6zm-3.893-1.854v1.319a9.666 9.666 0 0 0-2.595.535v-1.854zM4.32 9.303h7.788v5.019a9.8 9.8 0 0 0-2.07 1.468H4.32zM16.647 31.36a8.443 8.443 0 0 1-8.434-8.434c.424-11.174 16.446-11.171 16.868 0a8.443 8.443 0 0 1-8.434 8.434"/>
            </g>
        </g>
    </g>
</svg>
