<svg xmlns="http://www.w3.org/2000/svg" width="120" height="120" viewBox="0 0 120 120">
    <g transform="translate(-670 -243)">
        <circle data-name="타원 136" cx="60" cy="60" r="60" transform="translate(670 243)" style="fill:#e6efef"/>
        <g data-name="그룹 1078">
            <path data-name="패스 4618" d="M4 37a1 1 0 0 1-1-1v-3.865a1 1 0 1 1 2 0V36a1 1 0 0 1-1 1z" style="fill:#afcccc" transform="translate(698 271)"/>
        </g>
        <g data-name="그룹 1079">
            <path data-name="패스 4619" d="M18 37a1 1 0 0 1-1-1v-4.5a1 1 0 0 1 2 0V36a1 1 0 0 1-1 1z" style="fill:#afcccc" transform="translate(698 271)"/>
        </g>
        <g data-name="그룹 1080">
            <path data-name="패스 4620" d="M18 32.5a1 1 0 0 1-1-1 6.5 6.5 0 1 0-13 0 1 1 0 0 1-2 0 8.5 8.5 0 1 1 17 0 1 1 0 0 1-1 1z" style="fill:#afcccc" transform="translate(698 271)"/>
        </g>
        <g data-name="그룹 1081">
            <path data-name="패스 4621" d="M18 33.873a1 1 0 0 1-.8-.392c-1.931-2.523-2.457-2.313-4.414-1.538a16.857 16.857 0 0 1-9.948 1.042 1 1 0 0 1 .313-1.975 14.9 14.9 0 0 0 8.9-.927c2.408-.955 4.024-1.363 6.738 2.181a1 1 0 0 1-.186 1.4.988.988 0 0 1-.607.207z" style="fill:#afcccc" transform="translate(698 271)"/>
        </g>
        <g data-name="그룹 1082">
            <path data-name="패스 4622" d="M14 31.479a.988.988 0 0 1-.439-.1 1 1 0 0 1-.457-1.338l2-4.072a1 1 0 1 1 1.8.881l-2 4.072a1 1 0 0 1-.9.56z" style="fill:#afcccc" transform="translate(698 271)"/>
        </g>
        <g data-name="그룹 1083">
            <path data-name="패스 4623" d="M2 50a1 1 0 0 1-1-1 4 4 0 0 1 4-4 1 1 0 0 1 0 2 2 2 0 0 0-2 2 1 1 0 0 1-1 1z" style="fill:#afcccc" transform="translate(698 271)"/>
        </g>
        <g data-name="그룹 1084">
            <path data-name="패스 4624" d="M8 47H5a1 1 0 0 1 0-2h3a1 1 0 0 1 0 2z" style="fill:#afcccc" transform="translate(698 271)"/>
        </g>
        <g data-name="그룹 1085">
            <path data-name="패스 4625" d="M2 54a1 1 0 0 1-1-1v-4a1 1 0 0 1 2 0v4a1 1 0 0 1-1 1z" style="fill:#afcccc" transform="translate(698 271)"/>
        </g>
        <g data-name="그룹 1086">
            <path data-name="패스 4626" d="M20 50a1 1 0 0 1-1-1 2 2 0 0 0-2-2 1 1 0 0 1 0-2 4 4 0 0 1 4 4 1 1 0 0 1-1 1z" style="fill:#afcccc" transform="translate(698 271)"/>
        </g>
        <g data-name="그룹 1087">
            <path data-name="패스 4627" d="M17 47h-3a1 1 0 0 1 0-2h3a1 1 0 1 1 0 2z" style="fill:#afcccc" transform="translate(698 271)"/>
        </g>
        <g data-name="그룹 1088">
            <path data-name="패스 4628" d="M20 54a1 1 0 0 1-1-1v-4a1 1 0 0 1 2 0v4a1 1 0 0 1-1 1z" style="fill:#afcccc" transform="translate(698 271)"/>
        </g>
        <g data-name="그룹 1089">
            <path data-name="패스 4629" d="M8 47a1 1 0 0 1-1-1v-3.68a1 1 0 0 1 2 0V46a1 1 0 0 1-1 1z" style="fill:#afcccc" transform="translate(698 271)"/>
        </g>
        <g data-name="그룹 1090">
            <path data-name="패스 4630" d="M14 47a1 1 0 0 1-1-1v-3.68a1 1 0 0 1 2 0V46a1 1 0 0 1-1 1z" style="fill:#afcccc" transform="translate(698 271)"/>
        </g>
        <g data-name="그룹 1091">
            <path data-name="패스 4631" d="M11 43.994a8.007 8.007 0 0 1-8-8 1 1 0 0 1 2 0 6 6 0 0 0 12 0 1 1 0 0 1 2 0 8.007 8.007 0 0 1-8 8z" style="fill:#afcccc" transform="translate(698 271)"/>
        </g>
        <g data-name="그룹 1092">
            <path data-name="패스 4632" d="M46 37a1 1 0 0 1-1-1v-8a1 1 0 1 1 2 0v8a1 1 0 0 1-1 1z" style="fill:#afcccc" transform="translate(698 271)"/>
        </g>
        <g data-name="그룹 1093">
            <path data-name="패스 4633" d="M60 37a1 1 0 0 1-1-1v-.293a1 1 0 0 1 2 0V36a1 1 0 0 1-1 1z" style="fill:#afcccc" transform="translate(698 271)"/>
        </g>
        <g data-name="그룹 1094">
            <path data-name="패스 4634" d="M44 50a1 1 0 0 1-1-1 4 4 0 0 1 4-4 1 1 0 0 1 0 2 2 2 0 0 0-2 2 1 1 0 0 1-1 1z" style="fill:#afcccc" transform="translate(698 271)"/>
        </g>
        <g data-name="그룹 1095">
            <path data-name="패스 4635" d="M50 47h-3a1 1 0 1 1 0-2h3a1 1 0 0 1 0 2z" style="fill:#afcccc" transform="translate(698 271)"/>
        </g>
        <g data-name="그룹 1096">
            <path data-name="패스 4636" d="M44 54a1 1 0 0 1-1-1v-4a1 1 0 0 1 2 0v4a1 1 0 0 1-1 1z" style="fill:#afcccc" transform="translate(698 271)"/>
        </g>
        <g data-name="그룹 1097">
            <path data-name="패스 4637" d="M62 50a1 1 0 0 1-1-1 2 2 0 0 0-2-2 1 1 0 1 1 0-2 4 4 0 0 1 4 4 1 1 0 0 1-1 1z" style="fill:#afcccc" transform="translate(698 271)"/>
        </g>
        <g data-name="그룹 1098">
            <path data-name="패스 4638" d="M59 47h-3a1 1 0 1 1 0-2h3a1 1 0 0 1 0 2z" style="fill:#afcccc" transform="translate(698 271)"/>
        </g>
        <g data-name="그룹 1099">
            <path data-name="패스 4639" d="M62 54a1 1 0 0 1-1-1v-4a1 1 0 0 1 2 0v4a1 1 0 0 1-1 1z" style="fill:#afcccc" transform="translate(698 271)"/>
        </g>
        <g data-name="그룹 1100">
            <path data-name="패스 4640" d="M50 47a1 1 0 0 1-1-1v-3.68a1 1 0 0 1 2 0V46a1 1 0 0 1-1 1z" style="fill:#afcccc" transform="translate(698 271)"/>
        </g>
        <g data-name="그룹 1101">
            <path data-name="패스 4641" d="M56 47a1 1 0 0 1-1-1v-3.68a1 1 0 0 1 2 0V46a1 1 0 0 1-1 1z" style="fill:#afcccc" transform="translate(698 271)"/>
        </g>
        <g data-name="그룹 1102">
            <path data-name="패스 4642" d="M53 43.994a8.007 8.007 0 0 1-8-8 1 1 0 0 1 2 0 6 6 0 0 0 12 0 1 1 0 0 1 2 0 8.007 8.007 0 0 1-8 8z" style="fill:#afcccc" transform="translate(698 271)"/>
        </g>
        <g data-name="그룹 1103">
            <path data-name="패스 4643" d="M20 61a1 1 0 0 1-1-1 6.006 6.006 0 0 1 6-6 1 1 0 0 1 0 2 4 4 0 0 0-4 4 1 1 0 0 1-1 1z" style="fill:#afcccc" transform="translate(698 271)"/>
        </g>
        <g data-name="그룹 1104">
            <path data-name="패스 4644" d="M28 56h-3a1 1 0 0 1 0-2h3a1 1 0 0 1 0 2z" style="fill:#afcccc" transform="translate(698 271)"/>
        </g>
        <g data-name="그룹 1105">
            <path data-name="패스 4645" d="M20 64a1 1 0 0 1-1-1v-3a1 1 0 0 1 2 0v3a1 1 0 0 1-1 1z" style="fill:#afcccc" transform="translate(698 271)"/>
        </g>
        <g data-name="그룹 1106">
            <path data-name="패스 4646" d="M44 61a1 1 0 0 1-1-1 4 4 0 0 0-4-4 1 1 0 0 1 0-2 6.006 6.006 0 0 1 6 6 1 1 0 0 1-1 1z" style="fill:#afcccc" transform="translate(698 271)"/>
        </g>
        <g data-name="그룹 1107">
            <path data-name="패스 4647" d="M39 56h-3a1 1 0 0 1 0-2h3a1 1 0 0 1 0 2z" style="fill:#afcccc" transform="translate(698 271)"/>
        </g>
        <g data-name="그룹 1108">
            <path data-name="패스 4648" d="M44 64a1 1 0 0 1-1-1v-3a1 1 0 0 1 2 0v3a1 1 0 0 1-1 1z" style="fill:#afcccc" transform="translate(698 271)"/>
        </g>
        <g data-name="그룹 1109">
            <path data-name="패스 4649" d="M28 56a1 1 0 0 1-1-1v-3.934a1 1 0 0 1 2 0V55a1 1 0 0 1-1 1z" style="fill:#afcccc" transform="translate(698 271)"/>
        </g>
        <g data-name="그룹 1110">
            <path data-name="패스 4650" d="M36 56a1 1 0 0 1-1-1v-3.934a1 1 0 0 1 2 0V55a1 1 0 0 1-1 1z" style="fill:#afcccc" transform="translate(698 271)"/>
        </g>
        <g data-name="그룹 1111">
            <path data-name="패스 4651" d="M32 53a10.009 10.009 0 0 1-10-10 1 1 0 1 1 2 0 8 8 0 0 0 16 0 1 1 0 1 1 2 0 10.01 10.01 0 0 1-10 10z" style="fill:#afcccc" transform="translate(698 271)"/>
        </g>
        <g data-name="그룹 1112">
            <path data-name="패스 4652" d="M23 44.053a1 1 0 0 1-1-1V37a1 1 0 0 1 2 0v6.051a1 1 0 0 1-1 1.002z" style="fill:#afcccc" transform="translate(698 271)"/>
        </g>
        <g data-name="그룹 1113">
            <path data-name="패스 4653" d="M41 44a1 1 0 0 1-1-1v-6a1 1 0 0 1 2 0v6a1 1 0 0 1-1 1z" style="fill:#afcccc" transform="translate(698 271)"/>
        </g>
        <g data-name="그룹 1114">
            <path data-name="패스 4654" d="M41 38a1 1 0 0 1-1-1 3 3 0 0 0-3-3 1 1 0 0 1 0-2 5.006 5.006 0 0 1 5 5 1 1 0 0 1-1 1z" style="fill:#afcccc" transform="translate(698 271)"/>
        </g>
        <g data-name="그룹 1115">
            <path data-name="패스 4655" d="M37 34a1 1 0 0 1-1-1v-4a1 1 0 1 1 2 0v4a1 1 0 0 1-1 1z" style="fill:#afcccc" transform="translate(698 271)"/>
        </g>
        <g data-name="그룹 1116">
            <path data-name="패스 4656" d="M37 30.016h-6a1 1 0 0 1 0-2h6a1 1 0 0 1 0 2z" style="fill:#afcccc" transform="translate(698 271)"/>
        </g>
        <g data-name="그룹 1117">
            <path data-name="패스 4657" d="M23 38a1 1 0 0 1-1-1 9.01 9.01 0 0 1 9-9 1 1 0 0 1 0 2 7.009 7.009 0 0 0-7 7 1 1 0 0 1-1 1z" style="fill:#afcccc" transform="translate(698 271)"/>
        </g>
        <g data-name="그룹 1121">
            <g data-name="그룹 1118">
                <path data-name="패스 4658" d="M41 41.027a1 1 0 0 1-.559-.171l-3-2.025a1 1 0 1 1 1.119-1.659l3 2.025a1 1 0 0 1-.56 1.83z" style="fill:#afcccc" transform="translate(698 271)"/>
            </g>
            <g data-name="그룹 1119">
                <path data-name="패스 4659" d="M32.5 40a23.917 23.917 0 0 1-6.815-1.051 1 1 0 0 1 .63-1.9A22.261 22.261 0 0 0 32.5 38a12.628 12.628 0 0 0 5.059-.9 1 1 0 0 1 .888 1.793A14.284 14.284 0 0 1 32.5 40z" style="fill:#afcccc" transform="translate(698 271)"/>
            </g>
            <g data-name="그룹 1120">
                <path data-name="패스 4660" d="M23 41.027a1 1 0 0 1-.56-1.829l3-2.025a1 1 0 0 1 1.119 1.659l-3 2.025a1 1 0 0 1-.559.17z" style="fill:#afcccc" transform="translate(698 271)"/>
            </g>
        </g>
        <g data-name="그룹 1122">
            <path data-name="패스 4661" d="M62 32a1 1 0 0 1-1-1 7.009 7.009 0 0 0-7-7 7.3 7.3 0 0 0-4.374 1.78 1 1 0 0 1-1.252-1.56A9.109 9.109 0 0 1 54 22a9.01 9.01 0 0 1 9 9 1 1 0 0 1-1 1z" style="fill:#afcccc" transform="translate(698 271)"/>
        </g>
        <g data-name="그룹 1123">
            <path data-name="패스 4662" d="M62 42a1 1 0 0 1-1-1 7.009 7.009 0 0 0-7-7 1 1 0 1 1 0-2 9.01 9.01 0 0 1 9 9 1 1 0 0 1-1 1z" style="fill:#afcccc" transform="translate(698 271)"/>
        </g>
        <g data-name="그룹 1124">
            <path data-name="패스 4663" d="M46 34a1 1 0 1 1 0-2 2 2 0 0 0 2-2 1 1 0 1 1 2 0 4 4 0 0 1-4 4z" style="fill:#afcccc" transform="translate(698 271)"/>
        </g>
        <g data-name="그룹 1125">
            <path data-name="패스 4664" d="M46 29.012a1 1 0 0 1-1-1 4 4 0 0 1 4-4 1 1 0 0 1 0 2 2 2 0 0 0-2 2 1 1 0 0 1-1 1z" style="fill:#afcccc" transform="translate(698 271)"/>
        </g>
        <g data-name="그룹 1126">
            <path data-name="패스 4665" d="M52 34a4 4 0 0 1-4-4 1 1 0 1 1 2 0 2 2 0 0 0 2 2 1 1 0 0 1 0 2z" style="fill:#afcccc" transform="translate(698 271)"/>
        </g>
        <g data-name="그룹 1127">
            <path data-name="패스 4666" d="M49 31a1 1 0 0 1-1-1v-5a1 1 0 1 1 2 0v5a1 1 0 0 1-1 1z" style="fill:#afcccc" transform="translate(698 271)"/>
        </g>
        <g data-name="그룹 1128">
            <path data-name="패스 4667" d="M62 42a1 1 0 0 1-1-1V31a1 1 0 1 1 2 0v10a1 1 0 0 1-1 1z" style="fill:#afcccc" transform="translate(698 271)"/>
        </g>
        <g data-name="그룹 1129">
            <path data-name="패스 4668" d="M54 34h-2a1 1 0 0 1 0-2h2a1 1 0 0 1 0 2z" style="fill:#afcccc" transform="translate(698 271)"/>
        </g>
        <g data-name="그룹 1130">
            <path data-name="패스 4669" d="M3 33a1 1 0 0 1-1-1v-.5a1 1 0 0 1 2 0v.5a1 1 0 0 1-1 1z" style="fill:#afcccc" transform="translate(698 271)"/>
        </g>
        <g data-name="그룹 1131">
            <path data-name="패스 4670" d="M32 26a13 13 0 1 1 13-13 13.015 13.015 0 0 1-13 13zm0-24a11 11 0 1 0 11 11A11.013 11.013 0 0 0 32 2z" style="fill:#afcccc" transform="translate(698 271)"/>
        </g>
        <g data-name="그룹 1132">
            <path data-name="패스 4671" d="M11 48a5.3 5.3 0 0 1-3.707-1.29A1 1 0 0 1 8.7 45.288 3.462 3.462 0 0 0 11 46a3.465 3.465 0 0 0 2.307-.719 1 1 0 0 1 1.408.03.993.993 0 0 1-.006 1.4A5.316 5.316 0 0 1 11 48z" style="fill:#afcccc" transform="translate(698 271)"/>
        </g>
        <g data-name="그룹 1133">
            <path data-name="패스 4672" d="M53 48a5.3 5.3 0 0 1-3.706-1.294 1 1 0 0 1 1.406-1.418 4.056 4.056 0 0 0 4.607 0 1 1 0 0 1 1.408.03.993.993 0 0 1-.006 1.4A5.316 5.316 0 0 1 53 48z" style="fill:#afcccc" transform="translate(698 271)"/>
        </g>
        <g data-name="그룹 1134">
            <path data-name="패스 4673" d="M32 58a5.317 5.317 0 0 1-4.9-2.555 1 1 0 0 1 1.783-.9A3.4 3.4 0 0 0 32 56a3.4 3.4 0 0 0 3.1-1.449 1 1 0 0 1 1.789.9A5.311 5.311 0 0 1 32 58z" style="fill:#afcccc" transform="translate(698 271)"/>
        </g>
        <g data-name="그룹 1140">
            <g data-name="그룹 1135">
                <path data-name="패스 4674" d="M28.5 20a2.5 2.5 0 1 1 2.5-2.5 2.5 2.5 0 0 1-2.5 2.5zm0-3a.5.5 0 1 0 .5.5.5.5 0 0 0-.5-.5z" style="fill:#afcccc" transform="translate(698 271)"/>
            </g>
            <g data-name="그룹 1136">
                <path data-name="패스 4675" d="M30 18.5a1 1 0 0 1-1-1V10a1 1 0 0 1 2 0v7.5a1 1 0 0 1-1 1z" style="fill:#afcccc" transform="translate(698 271)"/>
            </g>
            <g data-name="그룹 1137">
                <path data-name="패스 4676" d="M35.508 17.994a2.5 2.5 0 1 1 2.5-2.5 2.5 2.5 0 0 1-2.5 2.5zm0-3a.5.5 0 1 0 .5.5.5.5 0 0 0-.5-.5z" style="fill:#afcccc" transform="translate(698 271)"/>
            </g>
            <g data-name="그룹 1138">
                <path data-name="패스 4677" d="M37.008 16.494a1 1 0 0 1-1-1v-7.5a1 1 0 0 1 2 0v7.5a1 1 0 0 1-1 1z" style="fill:#afcccc" transform="translate(698 271)"/>
            </g>
            <g data-name="그룹 1139">
                <path data-name="패스 4678" d="M30 10.994a1 1 0 0 1-.273-1.962l7.007-2a1 1 0 0 1 .548 1.924l-7.007 2a1.036 1.036 0 0 1-.275.038z" style="fill:#afcccc" transform="translate(698 271)"/>
            </g>
        </g>
    </g>
</svg>
