<svg xmlns="http://www.w3.org/2000/svg" width="160" height="160" viewBox="0 0 160 160">
    <g transform="translate(-670 -243)">
        <circle data-name="타원 136" cx="80" cy="80" r="80" transform="translate(670 243)" style="fill:#e6efef"/>
        <path data-name="패스 4683" d="M108.279 42.492a20.559 20.559 0 0 0 15.021-6.224 20.56 20.56 0 0 0 6.224-15.022A20.561 20.561 0 0 0 123.3 6.223a21.242 21.242 0 0 0-30.044 0 20.558 20.558 0 0 0-6.225 15.021 20.559 20.559 0 0 0 6.225 15.023 20.565 20.565 0 0 0 15.023 6.225zM96.912 9.879a16.072 16.072 0 0 1 22.733 0 15.36 15.36 0 0 1 4.71 11.366 15.36 15.36 0 0 1-4.71 11.367 16.07 16.07 0 0 1-22.733 0A15.357 15.357 0 0 1 92.2 21.246a15.358 15.358 0 0 1 4.712-11.367zm0 0" transform="translate(641.165 276)" style="fill:#afcccc;stroke:#e6efef"/>
        <path data-name="패스 4684" d="M73.417 272.537a52.479 52.479 0 0 0-.715-5.574 43.916 43.916 0 0 0-1.371-5.6 27.684 27.684 0 0 0-2.3-5.227 19.7 19.7 0 0 0-3.473-4.527 15.317 15.317 0 0 0-4.99-3.136 17.247 17.247 0 0 0-6.371-1.153c-.9 0-1.771.369-3.453 1.464a414.002 414.002 0 0 1-3.6 2.319 20.612 20.612 0 0 1-4.655 2.051 18.074 18.074 0 0 1-11.386 0 20.552 20.552 0 0 1-4.651-2.05 444.207 444.207 0 0 1-3.6-2.321c-1.68-1.095-2.551-1.464-3.452-1.464a17.225 17.225 0 0 0-6.37 1.154 15.3 15.3 0 0 0-4.991 3.136 19.707 19.707 0 0 0-3.473 4.527 27.734 27.734 0 0 0-2.3 5.227 44.019 44.019 0 0 0-1.37 5.6 52.121 52.121 0 0 0-.715 5.576A72.508 72.508 0 0 0 0 277.748c0 4.6 1.464 8.332 4.35 11.082a15.659 15.659 0 0 0 11.21 4.089h42.475a15.661 15.661 0 0 0 11.21-4.089c2.887-2.747 4.351-6.476 4.351-11.082 0-1.777-.061-3.531-.178-5.21zm-7.737 12.548a10.543 10.543 0 0 1-7.646 2.664H15.56a10.544 10.544 0 0 1-7.646-2.664c-1.847-1.759-2.745-4.159-2.745-7.337 0-1.653.055-3.285.164-4.852a47.013 47.013 0 0 1 .646-5.02 38.824 38.824 0 0 1 1.205-4.941 22.578 22.578 0 0 1 1.875-4.25 14.606 14.606 0 0 1 2.553-3.346 10.161 10.161 0 0 1 3.32-2.064 11.9 11.9 0 0 1 4.068-.784c.181.1.5.28 1.026.621 1.063.693 2.288 1.483 3.642 2.347a25.612 25.612 0 0 0 5.842 2.611 23.239 23.239 0 0 0 14.566 0 25.64 25.64 0 0 0 5.846-2.613 486.01 486.01 0 0 0 3.639-2.346c.522-.34.845-.524 1.026-.62a11.9 11.9 0 0 1 4.072.785 10.176 10.176 0 0 1 3.319 2.064 14.566 14.566 0 0 1 2.553 3.346 22.5 22.5 0 0 1 1.876 4.249 38.736 38.736 0 0 1 1.206 4.941 47.408 47.408 0 0 1 .646 5.021c.11 1.561.165 3.192.166 4.85 0 3.179-.9 5.579-2.746 7.336zm0 0" transform="translate(713.202 71.294)" style="fill:#afcccc;stroke:#e6efef"/>
    </g>
</svg>
