<svg xmlns="http://www.w3.org/2000/svg" width="56" height="56" viewBox="0 0 56 56">
    <defs>
        <clipPath id="v11crup8ua">
            <path data-name="사각형 843" style="fill:#fff" d="M0 0h22.223v28.829H0z"/>
        </clipPath>
    </defs>
    <g transform="translate(-1544 -572)">
        <circle data-name="타원 103" cx="28" cy="28" r="28" transform="translate(1544 572)" style="fill:#59c991"/>
        <g data-name="그룹 694">
            <g data-name="그룹 693" style="clip-path:url(#v11crup8ua)" transform="translate(1560.776 585.137)">
                <path data-name="패스 4561" d="M19.407 2.218h-2.74V1.126A1.126 1.126 0 0 0 15.541 0H6.682a1.126 1.126 0 0 0-1.127 1.126v1.092h-2.74A2.818 2.818 0 0 0 0 5.034v20.98a2.818 2.818 0 0 0 2.815 2.815h16.592a2.818 2.818 0 0 0 2.815-2.815V5.034a2.819 2.819 0 0 0-2.815-2.815m-4.992 2.218H7.807V2.252h6.607zm5.555 21.576a.564.564 0 0 1-.563.563H2.815a.564.564 0 0 1-.563-.563V5.034a.564.564 0 0 1 .563-.563h2.74v1.092a1.126 1.126 0 0 0 1.126 1.126h8.859a1.126 1.126 0 0 0 1.126-1.126V4.471h2.741a.564.564 0 0 1 .563.563zm-3.633-12.864a1.126 1.126 0 0 1 0 1.593l-5.918 5.918a1.126 1.126 0 0 1-1.593 0l-2.941-2.942a1.126 1.126 0 0 1 1.593-1.593l2.145 2.145 5.121-5.121a1.126 1.126 0 0 1 1.593 0" style="fill:#fff"/>
            </g>
        </g>
    </g>
</svg>
